<svg xmlns="http://www.w3.org/2000/svg" viewBox="0 0 180 280">
<g stroke="#241E1D" stroke-width="5" stroke-linecap="round" stroke-linejoin="round">
<ellipse cx="90" cy="266" rx="58" ry="9" fill="#000" opacity=".12" stroke="none"/>
<path d="M58 45c15-9 49-9 64 0l14 70-16 77H60l-16-77Z" fill="#232323"/>
<path d="M68 58h44v95H68Z" fill="#F5F0E8"/>
<path d="m52 81-28 63 21 9 30-54" fill="#232323"/>
<path d="m128 80 25 21 15-7 7 15-24 13-37-20" fill="#232323"/>
<path d="m153 101 14-7 8 15-15 9" fill="#F2B184"/>
<path d="M64 192 54 253h29l7-61M116 192l10 61H97l-7-61" fill="#202225"/>
<path d="M55 250h31l-2 18H43c-7 0-9-10-2-13Zm39 0h31l14 8c7 4 4 10-3 10H96Z" fill="#F3F3F1"/>
</g></svg>