<svg xmlns="http://www.w3.org/2000/svg" viewBox="0 0 128 128">
<rect width="128" height="128" fill="none"/>
<path d="M25 44C27 17 48 8 66 8c26 0 40 16 39 39-1 14-6 31-14 42-7 10-17 17-28 17-13 0-24-8-31-19-7-11-10-27-7-43Z" fill="#F2B184" stroke="#2B211F" stroke-width="4" stroke-linejoin="round"/>
<path d="M24 45c-1-22 9-36 25-40 15-4 34 0 44 11 9 10 11 20 11 34-7-7-13-14-17-23-3 7-8 13-15 16 2-7 1-13-2-18-7 10-19 18-36 21-5 1-7 1-10-1Z" fill="#211B1A" stroke="#211B1A" stroke-width="3"/>
<path d="M40 66c4-5 11-5 16 0" stroke="#3A2A26" stroke-width="3.2" stroke-linecap="round"/>
<path d="M72 66c4-5 11-5 16 0" stroke="#3A2A26" stroke-width="3.2" stroke-linecap="round"/>
<path d="M51 87c7 10 22 10 29 0-4 1-8 1-14 1-6 0-11 0-15-1Z" fill="#fff" stroke="#8C4B42" stroke-width="3" stroke-linejoin="round"/>
<path d="M64 72c-1 4-2 8 2 10" stroke="#C5795C" stroke-width="2.5" stroke-linecap="round"/>
<path d="M34 50c-7-2-10 4-8 11 1 6 5 10 10 10" fill="#F2B184" stroke="#2B211F" stroke-width="3"/>
<path d="M94 50c7-2 10 4 8 11-1 6-5 10-10 10" fill="#F2B184" stroke="#2B211F" stroke-width="3"/>
</svg>